<svg width="150" height="42" viewBox="0 0 150 42" fill="none" xmlns="http://www.w3.org/2000/svg">
<rect x="3" y="3" width="144" height="36" rx="9" stroke="#FFF7E9" stroke-width="6" stroke-linejoin="round"/>
<path d="M30.3125 28.5938C30.25 29.1354 30.1562 29.6667 30.0312 30.1875C29.9271 30.7083 29.7917 31.1771 29.625 31.5938C29.4583 31.9896 29.2396 32.3021 28.9688 32.5312C28.7188 32.7812 28.4271 32.9062 28.0938 32.9062C27.7604 32.9062 27.4583 32.6458 27.1875 32.125C26.9167 31.625 26.6562 30.9583 26.4062 30.125C26.1771 29.2708 25.9583 28.3125 25.75 27.25C25.5625 26.1875 25.3854 25.1146 25.2188 24.0312C25.0729 22.9271 24.9479 21.8542 24.8438 20.8125C24.7396 19.7708 24.6562 18.8646 24.5938 18.0938C24.4688 18.8854 24.3229 19.7708 24.1562 20.75C23.9896 21.7292 23.7917 22.7292 23.5625 23.75C23.3333 24.75 23.0833 25.7396 22.8125 26.7188C22.5417 27.6771 22.25 28.5417 21.9375 29.3125C21.625 30.0625 21.2917 30.6667 20.9375 31.125C20.5833 31.5833 20.2083 31.8125 19.8125 31.8125C19.4583 31.8125 19.1042 31.5729 18.75 31.0938C18.3958 30.6146 18.0521 29.9896 17.7188 29.2188C17.3854 28.4271 17.0729 27.5521 16.7812 26.5938C16.4896 25.6354 16.2188 24.6771 15.9688 23.7188C15.7188 22.7396 15.5 21.8229 15.3125 20.9688C15.125 20.0938 14.9792 19.3646 14.875 18.7812C14.875 19.2188 14.8646 19.7083 14.8438 20.25C14.8438 20.7708 14.8438 21.1458 14.8438 21.375C14.8438 21.4792 14.8333 21.8229 14.8125 22.4062C14.8125 22.9896 14.7812 23.6875 14.7188 24.5C14.6562 25.3125 14.5625 26.1875 14.4375 27.125C14.3125 28.0417 14.125 28.8958 13.875 29.6875C13.6458 30.4792 13.3542 31.1458 13 31.6875C12.6458 32.2292 12.2083 32.5208 11.6875 32.5625C11.2708 32.375 10.9167 32.0625 10.625 31.625C10.3542 31.1667 10.125 30.6354 9.9375 30.0312C9.75 29.4271 9.60417 28.7812 9.5 28.0938C9.39583 27.4062 9.3125 26.7396 9.25 26.0938C9.1875 25.4271 9.14583 24.8125 9.125 24.25C9.125 23.6875 9.125 23.2292 9.125 22.875C9.125 22.25 9.15625 21.4688 9.21875 20.5312C9.30208 19.5729 9.42708 18.5729 9.59375 17.5312C9.76042 16.4896 9.97917 15.4479 10.25 14.4062C10.5208 13.3646 10.8438 12.4375 11.2188 11.625C11.6146 10.7917 12.0625 10.1146 12.5625 9.59375C13.0833 9.07292 13.6771 8.8125 14.3438 8.8125C14.6562 8.8125 14.9896 8.98958 15.3438 9.34375C15.6979 9.69792 16.0521 10.1667 16.4062 10.75C16.7604 11.3125 17.1042 11.9479 17.4375 12.6562C17.7708 13.3646 18.0833 14.0833 18.375 14.8125C18.6875 15.5208 18.9583 16.2083 19.1875 16.875C19.4167 17.5208 19.6042 18.0729 19.75 18.5312C19.9167 18.0312 20.125 17.4479 20.375 16.7812C20.625 16.1146 20.8958 15.4271 21.1875 14.7188C21.5 13.9896 21.8333 13.2812 22.1875 12.5938C22.5625 11.8854 22.9479 11.2604 23.3438 10.7188C23.7396 10.1562 24.1354 9.70833 24.5312 9.375C24.9479 9.02083 25.3646 8.84375 25.7812 8.84375C26.5104 8.84375 27.1354 9.11458 27.6562 9.65625C28.1771 10.1979 28.6146 10.9062 28.9688 11.7812C29.3229 12.6354 29.6042 13.6042 29.8125 14.6875C30.0208 15.75 30.1771 16.8125 30.2812 17.875C30.4062 18.9167 30.4792 19.8958 30.5 20.8125C30.5417 21.7292 30.5625 22.4688 30.5625 23.0312C30.5625 23.2604 30.5625 23.5729 30.5625 23.9688C30.5625 24.3646 30.5521 24.8125 30.5312 25.3125C30.5312 25.8125 30.5104 26.3438 30.4688 26.9062C30.4271 27.4688 30.375 28.0312 30.3125 28.5938ZM39.5625 41.0938C39.0625 41.0938 38.4896 41.0104 37.8438 40.8438C37.2188 40.6979 36.625 40.4792 36.0625 40.1875C35.5 39.8958 35.0208 39.5417 34.625 39.125C34.25 38.7083 34.0625 38.2292 34.0625 37.6875C34.0625 37.4792 34.1146 37.2708 34.2188 37.0625C34.3229 36.8542 34.4583 36.6667 34.625 36.5C34.8125 36.3542 35.0104 36.2292 35.2188 36.125C35.4271 36.0417 35.6458 36 35.875 36C36.125 36 36.3646 36.0312 36.5938 36.0938C36.8438 36.1771 37.0938 36.2708 37.3438 36.375C37.6146 36.4792 37.875 36.5729 38.125 36.6562C38.3958 36.7396 38.6771 36.7812 38.9688 36.7812C39.4896 36.7812 39.9375 36.6042 40.3125 36.25C40.7083 35.8958 41.0417 35.4271 41.3125 34.8438C41.5833 34.2812 41.8021 33.6458 41.9688 32.9375C42.1354 32.25 42.2604 31.5625 42.3438 30.875C42.4479 30.1875 42.5208 29.5417 42.5625 28.9375C42.6042 28.3333 42.6354 27.8438 42.6562 27.4688C41.9271 28.5729 41.1979 29.4271 40.4688 30.0312C39.7604 30.6146 38.8854 30.9062 37.8438 30.9062C37.0521 30.9062 36.3542 30.7396 35.75 30.4062C35.1667 30.0729 34.6667 29.6354 34.25 29.0938C33.8333 28.5521 33.4896 27.9375 33.2188 27.25C32.9479 26.5417 32.7396 25.8125 32.5938 25.0625C32.4688 24.3125 32.3854 23.5833 32.3438 22.875C32.3021 22.1458 32.3021 21.4792 32.3438 20.875C32.3646 20.4167 32.4167 19.8229 32.5 19.0938C32.6042 18.3438 32.7604 17.6146 32.9688 16.9062C33.1771 16.1979 33.4688 15.6042 33.8438 15.125C34.2188 14.625 34.7083 14.3958 35.3125 14.4375C35.7083 14.4583 36.0312 14.6354 36.2812 14.9688C36.5312 15.2812 36.7292 15.6771 36.875 16.1562C37.0417 16.6354 37.1562 17.1667 37.2188 17.75C37.3021 18.3125 37.3542 18.875 37.375 19.4375C37.3958 20 37.3958 20.5208 37.375 21C37.375 21.4583 37.375 21.8125 37.375 22.0625C37.375 22.4167 37.3854 22.7708 37.4062 23.125C37.4271 23.4792 37.5 23.8021 37.625 24.0938C37.75 24.3646 37.9375 24.5833 38.1875 24.75C38.4583 24.9167 38.8333 25 39.3125 25C39.8542 25 40.2812 24.8646 40.5938 24.5938C40.9271 24.3229 41.1667 23.9896 41.3125 23.5938C41.4792 23.1771 41.5833 22.7396 41.625 22.2812C41.6667 21.8021 41.6875 21.3542 41.6875 20.9375C41.6875 20.6458 41.6875 20.2917 41.6875 19.875C41.6875 19.4583 41.6875 19.0208 41.6875 18.5625C41.7083 18.1042 41.75 17.6562 41.8125 17.2188C41.8958 16.7604 42.0104 16.3542 42.1562 16C42.3229 15.625 42.5312 15.3229 42.7812 15.0938C43.0521 14.8646 43.3958 14.75 43.8125 14.75C44.3333 14.75 44.7812 14.9583 45.1562 15.375C45.5312 15.7708 45.8438 16.3021 46.0938 16.9688C46.3646 17.6146 46.5729 18.3333 46.7188 19.125C46.8854 19.9167 47.0104 20.7083 47.0938 21.5C47.1771 22.2708 47.2292 22.9896 47.25 23.6562C47.2917 24.3021 47.3125 24.8125 47.3125 25.1875C47.3125 26.0625 47.2812 27.0625 47.2188 28.1875C47.1562 29.2917 47.0312 30.4375 46.8438 31.625C46.6771 32.7917 46.4167 33.9375 46.0625 35.0625C45.7083 36.2083 45.2396 37.2292 44.6562 38.125C44.0938 39.0208 43.3958 39.7396 42.5625 40.2812C41.7292 40.8229 40.7292 41.0938 39.5625 41.0938ZM64.5938 15.5625C64.5938 17 64.2604 18.2917 63.5938 19.4375C62.9271 20.5833 62.0417 21.5938 60.9375 22.4688C61.2708 22.9688 61.6146 23.5521 61.9688 24.2188C62.3229 24.8854 62.6354 25.5938 62.9062 26.3438C63.1979 27.0729 63.4271 27.8125 63.5938 28.5625C63.7812 29.2917 63.875 29.9688 63.875 30.5938C63.875 31.2604 63.7083 31.8542 63.375 32.375C63.0625 32.9167 62.5208 33.1875 61.75 33.1875C61.1042 33.1875 60.5417 32.875 60.0625 32.25C59.6042 31.625 59.1875 30.8854 58.8125 30.0312C58.4583 29.1562 58.125 28.2708 57.8125 27.375C57.5208 26.4792 57.2396 25.7604 56.9688 25.2188C56.5938 25.3438 56.2292 25.4896 55.875 25.6562C55.5208 25.8021 55.1562 25.9479 54.7812 26.0938C54.7604 26.5521 54.7188 27.1875 54.6562 28C54.6146 28.7917 54.5 29.5833 54.3125 30.375C54.1458 31.1667 53.8854 31.8542 53.5312 32.4375C53.1771 33.0208 52.6875 33.3125 52.0625 33.3125C51.375 33.3125 50.8438 33.0312 50.4688 32.4688C50.0938 31.9062 49.8229 31.2396 49.6562 30.4688C49.5104 29.6979 49.4271 28.9167 49.4062 28.125C49.3854 27.3125 49.375 26.6771 49.375 26.2188C49.375 25.2396 49.3958 24.2812 49.4375 23.3438C49.4792 22.3854 49.5 21.4167 49.5 20.4375C49.5 19.5417 49.4792 18.6458 49.4375 17.75C49.4167 16.8542 49.4062 15.9479 49.4062 15.0312C49.4062 14.8229 49.4062 14.5625 49.4062 14.25C49.4062 13.9167 49.4167 13.5833 49.4375 13.25C49.4792 12.8958 49.5208 12.5625 49.5625 12.25C49.6042 11.9375 49.6771 11.6875 49.7812 11.5C49.9896 11.0625 50.4583 10.6458 51.1875 10.25C51.9375 9.85417 52.75 9.51042 53.625 9.21875C54.5208 8.90625 55.3854 8.66667 56.2188 8.5C57.0729 8.3125 57.7083 8.21875 58.125 8.21875C59.1875 8.21875 60.125 8.41667 60.9375 8.8125C61.75 9.20833 62.4271 9.75 62.9688 10.4375C63.5104 11.1042 63.9167 11.8854 64.1875 12.7812C64.4583 13.6562 64.5938 14.5833 64.5938 15.5625ZM58.8125 16C58.8125 15.4583 58.6875 15.0521 58.4375 14.7812C58.1875 14.4896 57.7812 14.3438 57.2188 14.3438C56.8021 14.3438 56.375 14.4167 55.9375 14.5625C55.5208 14.7083 55.1354 14.875 54.7812 15.0625C54.8646 16.7083 54.8958 18.3438 54.875 19.9688C55.3125 19.8229 55.7604 19.6354 56.2188 19.4062C56.6771 19.1771 57.0938 18.8958 57.4688 18.5625C57.8646 18.2292 58.1875 17.8542 58.4375 17.4375C58.6875 17.0208 58.8125 16.5417 58.8125 16ZM78.7812 26.4375C78.7812 27.1458 78.5521 27.8438 78.0938 28.5312C77.6562 29.1979 77.0938 29.8021 76.4062 30.3438C75.7396 30.8646 75.0208 31.2917 74.25 31.625C73.4792 31.9375 72.7708 32.0938 72.125 32.0938C71.0208 32.0938 70.0312 31.8229 69.1562 31.2812C68.3021 30.7188 67.5833 30.0104 67 29.1562C66.4167 28.3021 65.9688 27.3646 65.6562 26.3438C65.3646 25.3021 65.2188 24.2917 65.2188 23.3125C65.2188 22.2708 65.3646 21.1562 65.6562 19.9688C65.9479 18.7812 66.3854 17.6875 66.9688 16.6875C67.5729 15.6875 68.3229 14.8542 69.2188 14.1875C70.1354 13.5208 71.2188 13.1875 72.4688 13.1875C73.1771 13.1875 73.8542 13.3125 74.5 13.5625C75.1458 13.7917 75.7083 14.125 76.1875 14.5625C76.6667 15 77.0521 15.5208 77.3438 16.125C77.6354 16.7292 77.7812 17.4062 77.7812 18.1562C77.7812 19.1354 77.5729 20.0521 77.1562 20.9062C76.7396 21.7604 76.1875 22.5 75.5 23.125C74.8125 23.75 74.0208 24.2604 73.125 24.6562C72.2292 25.0312 71.3125 25.2396 70.375 25.2812C70.4583 25.8854 70.6979 26.3229 71.0938 26.5938C71.5104 26.8646 72 27 72.5625 27C72.9792 27 73.3854 26.8958 73.7812 26.6875C74.1771 26.4792 74.5625 26.25 74.9375 26C75.3125 25.7292 75.6771 25.4896 76.0312 25.2812C76.4062 25.0729 76.7812 24.9688 77.1562 24.9688C77.5729 24.9688 77.9479 25.1042 78.2812 25.375C78.6146 25.6458 78.7812 26 78.7812 26.4375ZM73.7188 18.7812C73.7188 18.5104 73.6458 18.2292 73.5 17.9375C73.3542 17.6458 73.125 17.5 72.8125 17.5C72.3542 17.5 71.9688 17.625 71.6562 17.875C71.3438 18.1042 71.0833 18.4062 70.875 18.7812C70.6667 19.1354 70.5 19.5208 70.375 19.9375C70.2708 20.3542 70.2083 20.7396 70.1875 21.0938C70.4792 21.0312 70.8229 20.9479 71.2188 20.8438C71.6354 20.7396 72.0208 20.6042 72.375 20.4375C72.75 20.25 73.0625 20.0208 73.3125 19.75C73.5833 19.4792 73.7188 19.1562 73.7188 18.7812ZM91.625 20C91.625 20.1042 91.6146 20.2188 91.5938 20.3438C91.5729 20.4479 91.5417 20.5521 91.5 20.6562C91.3125 21.1354 91.0208 21.5417 90.625 21.875C90.2292 22.1875 89.7604 22.3438 89.2188 22.3438C88.4062 22.3438 87.8542 21.9375 87.5625 21.125C87.5208 21.0208 87.5 20.9062 87.5 20.7812C87.5 20.6354 87.4896 20.4896 87.4688 20.3438V19.4375C87.4271 19.1458 87.3542 18.9167 87.25 18.75C87.1458 18.5833 86.9688 18.5 86.7188 18.5C86.3646 18.5 86.0208 18.7292 85.6875 19.1875C85.375 19.625 85.0938 20.1562 84.8438 20.7812C84.6146 21.3854 84.4271 22.0104 84.2812 22.6562C84.1354 23.3021 84.0625 23.8229 84.0625 24.2188C84.0625 24.5312 84.0833 24.9167 84.125 25.375C84.1667 25.8125 84.25 26.2396 84.375 26.6562C84.5 27.0729 84.6667 27.4375 84.875 27.75C85.1042 28.0417 85.3958 28.1875 85.75 28.1875C86.1042 28.1875 86.4271 28.0833 86.7188 27.875C87.0312 27.6458 87.3333 27.3854 87.625 27.0938C87.8958 26.8438 88.1875 26.5833 88.5 26.3125C88.8333 26.0417 89.2083 25.9062 89.625 25.9062C90.1458 25.9062 90.5521 26.0938 90.8438 26.4688C91.1562 26.8438 91.3125 27.2708 91.3125 27.75C91.3125 28.4583 91.125 29.125 90.75 29.75C90.375 30.3542 89.9062 30.8854 89.3438 31.3438C88.7812 31.7812 88.1562 32.125 87.4688 32.375C86.7812 32.6458 86.125 32.7812 85.5 32.7812C84.375 32.7812 83.4167 32.5 82.625 31.9375C81.8542 31.375 81.2292 30.6667 80.75 29.8125C80.2708 28.9375 79.9271 27.9896 79.7188 26.9688C79.5104 25.9479 79.4062 24.9792 79.4062 24.0625C79.4062 23 79.5521 21.8542 79.8438 20.625C80.1354 19.375 80.5833 18.2188 81.1875 17.1562C81.7917 16.0938 82.5625 15.2083 83.5 14.5C84.4583 13.7917 85.5938 13.4375 86.9062 13.4375C87.7188 13.4375 88.4167 13.6146 89 13.9688C89.6042 14.3229 90.0938 14.7917 90.4688 15.375C90.8646 15.9375 91.1562 16.5729 91.3438 17.2812C91.5521 17.9896 91.6562 18.6875 91.6562 19.375C91.6562 19.4792 91.6562 19.5833 91.6562 19.6875C91.6562 19.7917 91.6458 19.8958 91.625 20ZM98.5312 10.1875C98.5312 10.4792 98.4479 10.7396 98.2812 10.9688C98.1354 11.1979 97.9375 11.4062 97.6875 11.5938C97.4375 11.7604 97.1667 11.8958 96.875 12C96.5833 12.0833 96.3125 12.125 96.0625 12.125C95.6458 12.125 95.2812 12.0208 94.9688 11.8125C94.6562 11.6042 94.5 11.2812 94.5 10.8438C94.5 10.5312 94.5729 10.2604 94.7188 10.0312C94.8854 9.78125 95.0833 9.58333 95.3125 9.4375C95.5417 9.27083 95.8021 9.14583 96.0938 9.0625C96.3854 8.97917 96.6667 8.9375 96.9375 8.9375C97.3333 8.9375 97.6979 9.03125 98.0312 9.21875C98.3646 9.40625 98.5312 9.72917 98.5312 10.1875ZM98.7812 20.8125C98.7812 21.1042 98.7812 21.4167 98.7812 21.75C98.7812 22.0625 98.7708 22.3646 98.75 22.6562C98.7292 23.0104 98.7188 23.4896 98.7188 24.0938C98.7188 24.6771 98.6979 25.3125 98.6562 26C98.6146 26.6875 98.5417 27.3854 98.4375 28.0938C98.3542 28.8021 98.2083 29.4479 98 30.0312C97.7917 30.6146 97.5104 31.0938 97.1562 31.4688C96.8229 31.8229 96.3958 32.0104 95.875 32.0312C95.4792 32.0521 95.1458 31.8958 94.875 31.5625C94.6042 31.2292 94.375 30.8021 94.1875 30.2812C94.0208 29.7396 93.8958 29.1458 93.8125 28.5C93.7292 27.8333 93.6667 27.1979 93.625 26.5938C93.5833 25.9688 93.5625 25.3958 93.5625 24.875C93.5625 24.3542 93.5625 23.9688 93.5625 23.7188C93.5625 23.3854 93.5625 22.9167 93.5625 22.3125C93.5625 21.6875 93.5833 21.0208 93.625 20.3125C93.6667 19.6042 93.7396 18.8854 93.8438 18.1562C93.9688 17.4271 94.1354 16.7604 94.3438 16.1562C94.5729 15.5521 94.8646 15.0625 95.2188 14.6875C95.5729 14.3125 96.0208 14.125 96.5625 14.125C97.125 14.125 97.5521 14.4062 97.8438 14.9688C98.1354 15.5312 98.3542 16.1875 98.5 16.9375C98.6458 17.6875 98.7292 18.4375 98.75 19.1875C98.7708 19.9167 98.7812 20.4583 98.7812 20.8125ZM115.312 22.6875C115.312 23.6042 115.208 24.6146 115 25.7188C114.812 26.8021 114.479 27.8125 114 28.75C113.542 29.6875 112.927 30.4688 112.156 31.0938C111.406 31.7188 110.458 32.0312 109.312 32.0312C109.021 32.0312 108.719 32.0104 108.406 31.9688C108.094 31.9271 107.792 31.8542 107.5 31.75C107.229 31.6458 106.979 31.5104 106.75 31.3438C106.521 31.1562 106.344 30.9167 106.219 30.625L105.938 35.125C105.917 35.6042 105.896 36.1771 105.875 36.8438C105.875 37.5104 105.792 38.1458 105.625 38.75C105.479 39.3542 105.219 39.8646 104.844 40.2812C104.49 40.7188 103.969 40.9375 103.281 40.9375C102.885 40.9375 102.552 40.7292 102.281 40.3125C102.01 39.9167 101.792 39.4062 101.625 38.7812C101.479 38.1562 101.365 37.4583 101.281 36.6875C101.198 35.9167 101.146 35.1771 101.125 34.4688C101.104 33.7604 101.094 33.1146 101.094 32.5312C101.094 31.9479 101.094 31.5208 101.094 31.25C101.094 29.8542 101.083 28.4688 101.062 27.0938C101.042 25.6979 101.031 24.3021 101.031 22.9062C101.031 22.6562 101.031 22.2708 101.031 21.75C101.031 21.2083 101.052 20.625 101.094 20C101.135 19.375 101.198 18.7292 101.281 18.0625C101.385 17.3958 101.531 16.7917 101.719 16.25C101.906 15.6875 102.146 15.2396 102.438 14.9062C102.729 14.5521 103.083 14.375 103.5 14.375C103.771 14.375 104.01 14.4583 104.219 14.625C104.448 14.7708 104.635 14.9688 104.781 15.2188C104.948 15.4479 105.083 15.6979 105.188 15.9688C105.292 16.2396 105.375 16.4896 105.438 16.7188C106.083 15.9896 106.823 15.4375 107.656 15.0625C108.51 14.6875 109.417 14.5 110.375 14.5C111.375 14.5 112.188 14.7812 112.812 15.3438C113.458 15.9062 113.958 16.6042 114.312 17.4375C114.688 18.2708 114.948 19.1667 115.094 20.125C115.24 21.0625 115.312 21.9167 115.312 22.6875ZM110.844 22.4375C110.844 22.125 110.812 21.8125 110.75 21.5C110.708 21.1667 110.615 20.8646 110.469 20.5938C110.344 20.3021 110.156 20.0729 109.906 19.9062C109.656 19.7188 109.344 19.625 108.969 19.625C108.469 19.625 107.938 19.7917 107.375 20.125C106.833 20.4375 106.427 20.8021 106.156 21.2188C106.052 21.3854 105.99 21.6562 105.969 22.0312C105.948 22.4062 105.938 22.6875 105.938 22.875C105.938 23.0208 105.938 23.2188 105.938 23.4688C105.958 23.6979 105.979 23.9375 106 24.1875C106.021 24.4375 106.042 24.6771 106.062 24.9062C106.104 25.1354 106.156 25.3125 106.219 25.4375C106.281 25.625 106.417 25.8021 106.625 25.9688C106.833 26.1146 107.062 26.25 107.312 26.375C107.562 26.5 107.812 26.5938 108.062 26.6562C108.333 26.7188 108.562 26.75 108.75 26.75C109.188 26.75 109.542 26.5833 109.812 26.25C110.083 25.9167 110.292 25.5208 110.438 25.0625C110.604 24.6042 110.708 24.1354 110.75 23.6562C110.812 23.1562 110.844 22.75 110.844 22.4375ZM130.312 26.4375C130.312 27.1458 130.083 27.8438 129.625 28.5312C129.188 29.1979 128.625 29.8021 127.938 30.3438C127.271 30.8646 126.552 31.2917 125.781 31.625C125.01 31.9375 124.302 32.0938 123.656 32.0938C122.552 32.0938 121.562 31.8229 120.688 31.2812C119.833 30.7188 119.115 30.0104 118.531 29.1562C117.948 28.3021 117.5 27.3646 117.188 26.3438C116.896 25.3021 116.75 24.2917 116.75 23.3125C116.75 22.2708 116.896 21.1562 117.188 19.9688C117.479 18.7812 117.917 17.6875 118.5 16.6875C119.104 15.6875 119.854 14.8542 120.75 14.1875C121.667 13.5208 122.75 13.1875 124 13.1875C124.708 13.1875 125.385 13.3125 126.031 13.5625C126.677 13.7917 127.24 14.125 127.719 14.5625C128.198 15 128.583 15.5208 128.875 16.125C129.167 16.7292 129.312 17.4062 129.312 18.1562C129.312 19.1354 129.104 20.0521 128.688 20.9062C128.271 21.7604 127.719 22.5 127.031 23.125C126.344 23.75 125.552 24.2604 124.656 24.6562C123.76 25.0312 122.844 25.2396 121.906 25.2812C121.99 25.8854 122.229 26.3229 122.625 26.5938C123.042 26.8646 123.531 27 124.094 27C124.51 27 124.917 26.8958 125.312 26.6875C125.708 26.4792 126.094 26.25 126.469 26C126.844 25.7292 127.208 25.4896 127.562 25.2812C127.938 25.0729 128.312 24.9688 128.688 24.9688C129.104 24.9688 129.479 25.1042 129.812 25.375C130.146 25.6458 130.312 26 130.312 26.4375ZM125.25 18.7812C125.25 18.5104 125.177 18.2292 125.031 17.9375C124.885 17.6458 124.656 17.5 124.344 17.5C123.885 17.5 123.5 17.625 123.188 17.875C122.875 18.1042 122.615 18.4062 122.406 18.7812C122.198 19.1354 122.031 19.5208 121.906 19.9375C121.802 20.3542 121.74 20.7396 121.719 21.0938C122.01 21.0312 122.354 20.9479 122.75 20.8438C123.167 20.7396 123.552 20.6042 123.906 20.4375C124.281 20.25 124.594 20.0208 124.844 19.75C125.115 19.4792 125.25 19.1562 125.25 18.7812ZM140.719 14.8125C140.719 15.4167 140.51 15.8646 140.094 16.1562C139.698 16.4479 139.25 16.7292 138.75 17C138.25 17.25 137.792 17.5521 137.375 17.9062C136.979 18.2604 136.781 18.7917 136.781 19.5C136.781 19.875 136.865 20.1979 137.031 20.4688C137.219 20.7396 137.438 20.9896 137.688 21.2188C137.958 21.4271 138.25 21.6458 138.562 21.875C138.875 22.1042 139.156 22.3646 139.406 22.6562C139.677 22.9479 139.896 23.3021 140.062 23.7188C140.25 24.1354 140.344 24.6458 140.344 25.25C140.344 26.125 140.115 26.9896 139.656 27.8438C139.219 28.6771 138.646 29.4271 137.938 30.0938C137.25 30.7396 136.469 31.2604 135.594 31.6562C134.719 32.0521 133.854 32.25 133 32.25C132.646 32.25 132.292 32.2188 131.938 32.1562C131.583 32.1146 131.26 32.0208 130.969 31.875C130.698 31.7292 130.469 31.5312 130.281 31.2812C130.094 31.0104 130 30.6667 130 30.25C130 29.6667 130.115 29.2188 130.344 28.9062C130.573 28.5729 130.865 28.3125 131.219 28.125C131.573 27.9375 131.948 27.7917 132.344 27.6875C132.76 27.5833 133.146 27.4583 133.5 27.3125C133.854 27.1458 134.146 26.9375 134.375 26.6875C134.604 26.4375 134.719 26.0833 134.719 25.625C134.719 25.1875 134.542 24.7396 134.188 24.2812C133.854 23.8021 133.479 23.3021 133.062 22.7812C132.646 22.2396 132.26 21.6667 131.906 21.0625C131.573 20.4583 131.406 19.7917 131.406 19.0625C131.406 18.1667 131.583 17.3438 131.938 16.5938C132.312 15.8229 132.802 15.1562 133.406 14.5938C134.031 14.0312 134.74 13.5938 135.531 13.2812C136.323 12.9479 137.156 12.7812 138.031 12.7812C138.365 12.7812 138.688 12.8125 139 12.875C139.333 12.9375 139.625 13.0521 139.875 13.2188C140.125 13.3646 140.323 13.5729 140.469 13.8438C140.635 14.0938 140.719 14.4167 140.719 14.8125Z" fill="#FFF7E9"/>
</svg>
